<?xml version="1.0" encoding="UTF-8"?>
<!DOCTYPE svg PUBLIC "-//W3C//DTD SVG 1.1//EN" "http://www.w3.org/Graphics/SVG/1.1/DTD/svg11.dtd">
<!-- Creator: CorelDRAW X8 -->
<svg xmlns="http://www.w3.org/2000/svg" xml:space="preserve" width="210mm" height="297mm" version="1.1" style="shape-rendering:geometricPrecision; text-rendering:geometricPrecision; image-rendering:optimizeQuality; fill-rule:evenodd; clip-rule:evenodd"
viewBox="0 0 21000 29700"
 xmlns:xlink="http://www.w3.org/1999/xlink">
 <defs>
  <style type="text/css">
   <![CDATA[
    .fil1 {fill:white}
    .fil0 {fill:url(#id0)}
    .fil2 {fill:url(#id1);fill-rule:nonzero}
   ]]>
  </style>
  <linearGradient id="id0" gradientUnits="userSpaceOnUse" x1="10600.2" y1="21485.7" x2="10973.5" y2="7261.75">
   <stop offset="0" style="stop-opacity:1; stop-color:#D11B76"/>
   <stop offset="0.788235" style="stop-opacity:1; stop-color:#690E6E"/>
   <stop offset="1" style="stop-opacity:1; stop-color:#000066"/>
  </linearGradient>
  <linearGradient id="id1" gradientUnits="userSpaceOnUse" x1="30233" y1="10454.5" x2="37243.9" y2="22512.2">
   <stop offset="0" style="stop-opacity:1; stop-color:#B41774"/>
   <stop offset="0.690196" style="stop-opacity:1; stop-color:#660D6E"/>
   <stop offset="1" style="stop-opacity:1; stop-color:#170368"/>
  </linearGradient>
 </defs>
 <g id="Camada_x0020_1">
  <metadata id="CorelCorpID_0Corel-Layer"/>
  <path class="fil0" d="M9479 19223l2652 2064 19 17c174,149 372,183 602,183 532,0 963,-432 963,-964 0,-107 -7,-211 -42,-312 144,18 289,27 435,27 1518,-1 2867,-970 3352,-2408 1309,-394 2214,-1612 2214,-2979 -1,-1027 -516,-1998 -1366,-2574 -907,-2980 -3657,-5017 -6773,-5016 -1161,0 -2305,286 -3329,833l-1 -1c-220,-33 -442,-50 -665,-50 -1863,1 -3526,1169 -4159,2921l0 1c-920,562 -1481,1563 -1481,2642 0,1246 747,2370 1895,2853 289,498 771,878 1324,1034 468,1234 1650,2051 2971,2050 481,0 956,-110 1389,-321z"/>
  <path class="fil1" d="M15397 11483c55,-74 141,-119 233,-123 -6,-91 -83,-162 -175,-161 -1068,143 -2096,-458 -2495,-1459 -794,273 -1382,950 -1542,1775 -159,824 134,1672 769,2221 313,379 477,850 477,1329 0,202 -29,407 -90,606 -203,669 -728,1192 -1397,1393 1292,72 2461,-765 2808,-2012 346,-1247 -222,-2567 -1366,-3172 755,-559 1770,-614 2581,-140 45,22 98,22 144,2 -22,-90 -3,-185 53,-259z"/>
  <path class="fil1" d="M7589 15052l0 0zm1366 -3172c-1144,605 -1713,1925 -1366,3172 347,1247 1515,2084 2808,2012 -670,-201 -1194,-724 -1397,-1393 -204,-669 -58,-1395 386,-1935 636,-549 929,-1397 769,-2221 -159,-825 -747,-1502 -1542,-1775 -398,1001 -1427,1602 -2494,1459 -92,-1 -169,69 -175,161 92,4 177,49 233,123 55,74 75,169 53,259 46,20 99,20 144,-2 811,-474 1826,-419 2581,140z"/>
  <path class="fil2" d="M26442 11480l1653 0 0 6356 -1653 0 0 -2034 -1934 0 0 2034 -1653 0 0 -6356 1653 0 0 2679 1934 0 0 -2679zm2107 2506l2633 0 0 3850 -1416 0 0 -2052 -1217 0 0 -1798zm1217 -2506l1416 0 0 1816 -1416 0 0 -1816zm3886 2297c279,0 540,53 786,159 245,106 458,248 640,430 181,182 325,395 431,639 106,245 159,505 159,784 0,278 -53,537 -159,779 -106,241 -250,453 -431,634 -182,182 -395,324 -640,430 -246,106 -507,159 -786,159 -175,0 -354,-24 -536,-73l0 3769 -1480 0 0 -7501 1117 0c139,-63 285,-115 436,-153 151,-38 306,-56 463,-56zm0 2606c164,0 304,-59 422,-177 118,-118 178,-258 178,-422 0,-169 -60,-312 -178,-427 -118,-115 -258,-172 -422,-172 -163,0 -304,57 -422,172 -118,115 -177,258 -177,427 0,164 59,304 177,422 118,118 259,177 422,177zm4477 -2606c278,0 540,53 785,159 246,106 459,248 641,430 181,182 325,395 431,639 106,245 159,505 159,784 0,278 -53,537 -159,779 -106,241 -250,453 -431,634 -182,182 -395,324 -641,430 -245,106 -507,159 -785,159 -176,0 -354,-24 -536,-73l0 3769 -1480 0 0 -7501 1117 0c139,-63 284,-115 436,-153 151,-38 306,-56 463,-56zm0 2606c163,0 304,-59 422,-177 118,-118 177,-258 177,-422 0,-169 -59,-312 -177,-427 -118,-115 -259,-172 -422,-172 -163,0 -304,57 -422,172 -118,115 -177,258 -177,427 0,164 59,304 177,422 118,118 259,177 422,177zm4477 1626c-279,0 -541,-53 -786,-159 -245,-106 -458,-250 -640,-431 -182,-182 -325,-394 -431,-636 -106,-242 -159,-502 -159,-781 0,-278 53,-540 159,-785 106,-246 249,-459 431,-641 182,-181 395,-325 640,-431 245,-106 507,-159 786,-159 278,0 540,53 785,159 245,106 459,250 640,431 182,182 326,395 432,641 106,245 159,507 159,785 0,279 -53,539 -159,781 -106,242 -250,454 -432,636 -181,181 -395,325 -640,431 -245,106 -507,159 -785,159zm0 -2615c-164,0 -304,57 -423,174 -118,115 -177,259 -177,430 0,164 59,307 177,425 119,119 259,178 423,178 163,0 304,-59 422,-178 118,-118 177,-261 177,-425 0,-171 -59,-315 -177,-430 -118,-117 -259,-174 -422,-174z"/>
 </g>
</svg>
