<?xml version="1.0" encoding="UTF-8"?>
<!DOCTYPE svg PUBLIC "-//W3C//DTD SVG 1.1//EN" "http://www.w3.org/Graphics/SVG/1.1/DTD/svg11.dtd">
<!-- Creator: CorelDRAW X8 -->
<svg xmlns="http://www.w3.org/2000/svg" xml:space="preserve" width="210mm" height="297mm" version="1.1" style="shape-rendering:geometricPrecision; text-rendering:geometricPrecision; image-rendering:optimizeQuality; fill-rule:evenodd; clip-rule:evenodd"
viewBox="0 0 21000 29700"
 xmlns:xlink="http://www.w3.org/1999/xlink">
 <defs>
  <style type="text/css">
   <![CDATA[
    .str0 {stroke:#1F9FBF;stroke-width:338.67}
    .fil1 {fill:#1F9FBF}
    .fil0 {fill:white}
   ]]>
  </style>
 </defs>
 <g id="Camada_x0020_1">
  <metadata id="CorelCorpID_0Corel-Layer"/>
  <path class="fil0 str0" d="M9479 19223l2652 2064 19 17c174,149 372,183 602,183 532,0 963,-432 963,-964 0,-107 -7,-211 -42,-312 144,18 289,27 435,27 1518,-1 2867,-970 3352,-2408 1309,-394 2214,-1612 2214,-2979 -1,-1027 -516,-1998 -1366,-2574 -907,-2980 -3657,-5017 -6773,-5016 -1161,0 -2305,286 -3329,833l-1 -1c-220,-33 -442,-50 -665,-50 -1863,1 -3526,1169 -4159,2921l0 1c-920,562 -1481,1563 -1481,2642 0,1246 747,2370 1895,2853 289,498 771,878 1324,1034 468,1234 1650,2051 2971,2050 481,0 956,-110 1389,-321z"/>
  <path class="fil1" d="M15397 11483c55,-74 141,-119 233,-123 -6,-91 -83,-162 -175,-161 -1068,143 -2096,-458 -2495,-1459 -794,273 -1382,950 -1542,1775 -159,824 134,1672 769,2221 313,379 477,850 477,1329 0,202 -29,407 -90,606 -203,669 -728,1192 -1397,1393 1292,72 2461,-765 2808,-2012 346,-1247 -222,-2567 -1366,-3172 755,-559 1770,-614 2581,-140 45,22 98,22 144,2 -22,-90 -3,-185 53,-259z"/>
  <path class="fil1" d="M7589 15052l0 0zm1366 -3172c-1144,605 -1713,1925 -1366,3172 347,1247 1515,2084 2808,2012 -670,-201 -1194,-724 -1397,-1393 -204,-669 -58,-1395 386,-1935 636,-549 929,-1397 769,-2221 -159,-825 -747,-1502 -1542,-1775 -398,1001 -1427,1602 -2494,1459 -92,-1 -169,69 -175,161 92,4 177,49 233,123 55,74 75,169 53,259 46,20 99,20 144,-2 811,-474 1826,-419 2581,140z"/>
 </g>
</svg>
